<svg width="199" height="32" viewBox="0 0 199 32" fill="none" xmlns="http://www.w3.org/2000/svg">
<path fill-rule="evenodd" clip-rule="evenodd" d="M46.6908 26.0747H42.9609V5.66699H51.0366V9.42471H46.6851L46.6908 26.0747ZM59.5111 5.66699H68.2082V9.42471H63.3935V13.3623H67.1233V17.1201H63.3935V22.3236H68.5192V26.0812H59.5111V5.66699ZM84.0547 17.1201H80.4831V26.068H76.6005V5.66699H80.4831V13.3623H84.0547V5.66699H87.7846V26.0747H84.0547V17.1201ZM96.2062 5.66699H104.904V9.42471H100.089V13.3623H103.819V17.1201H100.089V22.3236H105.214V26.0812H96.2062V5.66699ZM120.281 11.5701C120.281 10.644 119.735 9.42471 118.885 9.42471H117.149V16.0474H118.908C119.765 16.0474 120.304 14.3151 120.304 13.5422L120.281 11.5701ZM119.811 19.6585H117.149V26.1013H113.267V5.66699H119.636C120.222 5.68078 120.799 5.82629 121.336 6.09515C121.872 6.36399 122.356 6.75086 122.76 7.2334C123.164 7.71593 123.48 8.2846 123.69 8.90657C123.899 9.52854 123.998 10.1915 123.981 10.8572V14.0819C124.005 16.3272 122.89 19.6585 119.811 19.6585ZM135.881 11.0704L134.637 18.5859H137.124L135.881 11.0704ZM137.746 21.9905H134.016L133.394 26.108H129.512L133.394 5.66699H138.367L142.25 26.0747H138.367L137.746 21.9905ZM158.471 26.108H148.818V5.66699H152.7V22.3236H156.12V5.66699H160.002V22.3236H161.556V29.6524H158.448L158.471 26.108ZM176.247 15.1879L172.365 23.9559V26.1013H168.482V5.66699H172.365V16.5871L176.247 7.81902V5.66699H180.129V26.0747H176.247V15.1879ZM195.079 9.45803H193.214C192.539 9.45803 191.97 10.4707 191.97 11.0704V13.3957C191.97 14.0619 192.463 15.541 193.055 15.541H195.073L195.079 9.45803ZM195.079 26.1145V18.9123H193.835L191.349 26.0747H187.155L190.574 18.0195C190.574 18.0195 188.229 16.8269 188.229 13.1891V10.524C188.229 7.74571 189.935 5.69363 192.733 5.69363H198.961V26.1013L195.079 26.1145Z" fill="white"/>
<path d="M3.99158 25.9432C1.42826 23.102 0.00648189 19.4128 2.21087e-05 15.5859C-0.00643766 11.759 1.40288 8.06502 3.95659 5.2153L10.4544 11.7146V19.4738L3.99158 25.9432ZM20.556 30.2326V18.9288H12.1488V12.1946H30.6427C32.0422 18.4339 29.463 26.928 20.556 30.2326ZM20.556 10.5347V0.930747C22.7848 1.69145 24.8099 2.95251 26.476 4.61726C28.142 6.282 29.4049 8.30622 30.1677 10.5347H20.556ZM11.619 10.5347L5.1212 4.03542C7.99713 1.45822 11.7315 0.047927 15.5927 0.0808384C16.7051 0.0571721 17.8154 0.188416 18.8916 0.470796V10.5347H11.619ZM5.1262 27.0779L11.624 20.6287H18.8916V30.6926C16.475 31.2263 13.9661 31.1767 11.5725 30.5482C9.17878 29.9195 6.96913 28.73 5.1262 27.0779Z" fill="white"/>
</svg>
